<mxfile host="app.diagrams.net" modified="2024-07-24T02:55:43.100Z" agent="Mozilla/5.0 (Windows NT 10.0; Win64; x64) AppleWebKit/537.36 (KHTML, like Gecko) Chrome/126.0.0.0 Safari/537.36 Edg/126.0.0.0" version="24.6.4" etag="hUSGlV-_v8pAuIUi6xDc" type="device">
  <diagram id="W-rA_fIBm1XFipLu876Y" name="Страница — 1">
    <mxGraphModel dx="1290" dy="541" grid="1" gridSize="10" guides="1" tooltips="1" connect="1" arrows="1" fold="1" page="1" pageScale="1" pageWidth="827" pageHeight="1169" math="0" shadow="0">
      <root>
        <mxCell id="0" />
        <mxCell id="1" parent="0" />
        <mxCell id="WigzjcPMBpeON3jIAZHh-3" style="edgeStyle=orthogonalEdgeStyle;rounded=0;orthogonalLoop=1;jettySize=auto;html=1;" edge="1" parent="1" source="WigzjcPMBpeON3jIAZHh-1" target="WigzjcPMBpeON3jIAZHh-2">
          <mxGeometry relative="1" as="geometry" />
        </mxCell>
        <mxCell id="WigzjcPMBpeON3jIAZHh-1" value="JSON" style="shape=note;whiteSpace=wrap;html=1;backgroundOutline=1;darkOpacity=0.05;" vertex="1" parent="1">
          <mxGeometry x="80" y="160" width="80" height="100" as="geometry" />
        </mxCell>
        <mxCell id="WigzjcPMBpeON3jIAZHh-5" style="edgeStyle=orthogonalEdgeStyle;rounded=0;orthogonalLoop=1;jettySize=auto;html=1;" edge="1" parent="1" source="WigzjcPMBpeON3jIAZHh-2" target="WigzjcPMBpeON3jIAZHh-4">
          <mxGeometry relative="1" as="geometry" />
        </mxCell>
        <mxCell id="WigzjcPMBpeON3jIAZHh-2" value="F&lt;span style=&quot;background-color: initial;&quot;&gt;ramework&lt;/span&gt;" style="whiteSpace=wrap;html=1;aspect=fixed;" vertex="1" parent="1">
          <mxGeometry x="280" y="170" width="80" height="80" as="geometry" />
        </mxCell>
        <mxCell id="WigzjcPMBpeON3jIAZHh-4" value="Result" style="shape=note;whiteSpace=wrap;html=1;backgroundOutline=1;darkOpacity=0.05;" vertex="1" parent="1">
          <mxGeometry x="480" y="160" width="80" height="100" as="geometry" />
        </mxCell>
      </root>
    </mxGraphModel>
  </diagram>
</mxfile>
